<svg t="1578533932968" class="icon" viewBox="0 0 1024 1024" version="1.1" xmlns="http://www.w3.org/2000/svg" p-id="3015" width="200" height="200"><path d="M42.648427 938.623788h938.674987c12.441258 0 22.629778 3.99349 30.667956 12.031669a41.522058 41.522058 0 0 1 11.980471 30.667957 41.522058 41.522058 0 0 1-11.980471 30.667956 41.522058 41.522058 0 0 1-30.719155 11.980471H42.699626a41.522058 41.522058 0 0 1-30.667957-11.980471 41.522058 41.522058 0 0 1-11.98047-30.719155c0-12.390059 3.99349-22.629778 11.98047-30.616758a41.522058 41.522058 0 0 1 30.719155-12.031669z m511.985921-338.627488l314.666546-314.666547 61.335913 60.00475L507.99243 767.978881 85.348053 345.334503l60.00475-60.00475L469.337493 609.263245V0h85.296855v599.9963z" p-id="3016"></path></svg>